<svg width="400" height="400" viewBox="0 0 400 400" fill="none" xmlns="http://www.w3.org/2000/svg">
<path fill-rule="evenodd" clip-rule="evenodd" d="M286.952 153.18C312.829 127.303 354.716 127.303 380.593 153.18C406.469 179.056 406.469 220.944 380.593 246.82C354.716 272.697 312.829 272.697 286.952 246.82L266.886 226.754L226.754 266.886L246.82 286.952C272.697 312.829 272.697 354.716 246.82 380.593C220.944 406.469 179.056 406.469 153.18 380.593C127.303 354.716 127.303 312.829 153.18 286.952L173.246 266.886L133.114 226.754L113.048 246.82C87.1714 272.697 45.284 272.697 19.4074 246.82C-6.46914 220.944 -6.46914 179.056 19.4074 153.18C45.284 127.303 87.1714 127.303 113.048 153.18L133.114 173.246L173.246 133.114L153.18 113.048C127.303 87.1714 127.303 45.284 153.18 19.4074C179.056 -6.46914 220.944 -6.46914 246.82 19.4074C272.697 45.284 272.697 87.1714 246.82 113.048L226.754 133.114L266.886 173.246L286.952 153.18ZM353.838 220.066C342.76 231.144 324.784 231.144 313.706 220.066L293.641 200L313.706 179.934C324.784 168.856 342.76 168.856 353.838 179.934C364.916 191.012 364.916 208.988 353.838 220.066ZM179.934 46.1619C191.012 35.0839 208.988 35.0839 220.066 46.1619C231.144 57.2399 231.144 75.2155 220.066 86.2936L200 106.359L179.934 86.2936C168.856 75.2155 168.856 57.2399 179.934 46.1619ZM200 159.868L159.868 200L200 240.132L240.132 200L200 159.868ZM46.1619 220.066C35.0839 208.988 35.0839 191.012 46.1619 179.934C57.2399 168.856 75.2155 168.856 86.2936 179.934L106.359 200L86.2936 220.066C75.2155 231.144 57.2399 231.144 46.1619 220.066ZM220.066 353.838C208.988 364.916 191.012 364.916 179.934 353.838C168.856 342.76 168.856 324.784 179.934 313.706L200 293.641L220.066 313.706C231.144 324.784 231.144 342.76 220.066 353.838Z" fill="white"/>
<path fill-rule="evenodd" clip-rule="evenodd" d="M380.593 153.18C354.716 127.303 312.829 127.303 286.952 153.18L266.886 173.246L226.754 133.114L246.82 113.048C272.697 87.1714 272.697 45.284 246.82 19.4074C220.944 -6.46914 179.056 -6.46914 153.18 19.4074C127.303 45.284 127.303 87.1714 153.18 113.048L173.246 133.114L133.114 173.246L113.048 153.18C87.1714 127.303 45.284 127.303 19.4074 153.18C-6.46914 179.056 -6.46914 220.944 19.4074 246.82C45.284 272.697 87.1714 272.697 113.048 246.82L133.114 226.754L173.246 266.886L153.18 286.952C127.303 312.829 127.303 354.716 153.18 380.593C179.056 406.469 220.944 406.469 246.82 380.593C272.697 354.716 272.697 312.829 246.82 286.952L226.754 266.886L266.886 226.754L286.952 246.82C312.829 272.697 354.716 272.697 380.593 246.82C406.469 220.944 406.469 179.056 380.593 153.18ZM220.066 353.838C208.988 364.916 191.012 364.916 179.934 353.838C168.856 342.76 168.856 324.784 179.934 313.706L200 293.641L220.066 313.706C231.144 324.784 231.144 342.76 220.066 353.838ZM159.868 200L200 159.868L240.132 200L200 240.132L159.868 200ZM179.934 46.1619C191.012 35.0839 208.988 35.0839 220.066 46.1619C231.144 57.2399 231.144 75.2155 220.066 86.2936L200 106.359L179.934 86.2936C168.856 75.2155 168.856 57.2399 179.934 46.1619ZM46.1619 179.934C35.0839 191.012 35.0839 208.988 46.1619 220.066C57.2399 231.144 75.2155 231.144 86.2936 220.066L106.359 200L86.2936 179.934C75.2155 168.856 57.2399 168.856 46.1619 179.934ZM353.838 220.066C342.76 231.144 324.784 231.144 313.706 220.066L293.641 200L313.706 179.934C324.784 168.856 342.76 168.856 353.838 179.934C364.916 191.012 364.916 208.988 353.838 220.066Z" fill="white"/>
</svg>
